HIERARCHY
ROOT Hips
{
	OFFSET -0.001795 -0.223333 0.028219
	CHANNELS 6 Xposition Yposition Zposition Zrotation Yrotation Xrotation 
	JOINT LeftUpLeg
	{
		OFFSET 0.069520 -0.091406 -0.006815
		CHANNELS 3 Zrotation Yrotation Xrotation
		JOINT LeftLeg
		{
			OFFSET 0.034277 -0.375199 -0.004496
			CHANNELS 3 Zrotation Yrotation Xrotation
			JOINT LeftFoot
			{
				OFFSET -0.013596 -0.397961 -0.043693
				CHANNELS 3 Zrotation Yrotation Xrotation
				JOINT LeftToe
				{
					OFFSET 0.026358 -0.055791 0.119288
					CHANNELS 3 Zrotation Yrotation Xrotation
					End Site
					{
						OFFSET 0.000000 0.000000 0.000000
					}
				}
			}
		}
	}
	JOINT RightUpLeg
	{
		OFFSET -0.067670 -0.090522 -0.004320
		CHANNELS 3 Zrotation Yrotation Xrotation
		JOINT RightLeg
		{
			OFFSET -0.038290 -0.382569 -0.008850
			CHANNELS 3 Zrotation Yrotation Xrotation
			JOINT RightFoot
			{
				OFFSET 0.015774 -0.398415 -0.042312
				CHANNELS 3 Zrotation Yrotation Xrotation
				JOINT RightToe
				{
					OFFSET -0.025372 -0.048144 0.123348
					CHANNELS 3 Zrotation Yrotation Xrotation
					End Site
					{
						OFFSET 0.000000 0.000000 0.000000
					}
				}
			}
		}
	}
	JOINT Spine
	{
		OFFSET -0.002533 0.108963 -0.026696
		CHANNELS 3 Zrotation Yrotation Xrotation
		JOINT Spine1
		{
			OFFSET 0.005487 0.135180 0.001092
			CHANNELS 3 Zrotation Yrotation Xrotation
			JOINT Spine2
			{
				OFFSET 0.001457 0.052922 0.025425
				CHANNELS 3 Zrotation Yrotation Xrotation
				JOINT Neck
				{
					OFFSET -0.002778 0.213870 -0.042857
					CHANNELS 3 Zrotation Yrotation Xrotation
					JOINT Head
					{
						OFFSET 0.005152 0.064970 0.051349
						CHANNELS 3 Zrotation Yrotation Xrotation
						End Site
						{
							OFFSET 0.000000 0.000000 0.000000
						}
					}
				}
				JOINT LeftShoulder
				{
					OFFSET 0.078845 0.121749 -0.034090
					CHANNELS 3 Zrotation Yrotation Xrotation
					JOINT LeftArm
					{
						OFFSET 0.090977 0.030469 -0.008868
						CHANNELS 3 Zrotation Yrotation Xrotation
						JOINT LeftForeArm
						{
							OFFSET 0.259612 -0.012772 -0.027456
							CHANNELS 3 Zrotation Yrotation Xrotation
							JOINT LeftHand
							{
								OFFSET 0.249234 0.008986 -0.001171
								CHANNELS 3 Zrotation Yrotation Xrotation
								End Site
								{
									OFFSET 0.000000 0.000000 0.000000
								}
							}
						}
					}
				}
				JOINT RightShoulder
				{
					OFFSET -0.081759 0.118833 -0.038615
					CHANNELS 3 Zrotation Yrotation Xrotation
					JOINT RightArm
					{
						OFFSET -0.096012 0.032551 -0.009143
						CHANNELS 3 Zrotation Yrotation Xrotation
						JOINT RightForeArm
						{
							OFFSET -0.253742 -0.013329 -0.021401
							CHANNELS 3 Zrotation Yrotation Xrotation
							JOINT RightHand
							{
								OFFSET -0.255298 0.007772 -0.005559
								CHANNELS 3 Zrotation Yrotation Xrotation
								End Site
								{
									OFFSET 0.000000 0.000000 0.000000
								}
							}
						}
					}
				}
			}
		}
	}
}
MOTION
Frames: 9
Frame Time: 0.050000
0.000000 0.949754 0.000000 -1.524841 1.824546 -0.732585 1.634796 0.402707 5.738332 -0.066886 0.158094 -4.561751 -0.265977 1.550195 4.491745 0.000000 0.000000 0.000000 0.458149 -0.489542 4.500127 -0.063932 -0.069988 -1.930720 0.335140 -1.542715 5.143104 0.000000 0.000000 0.000000 -1.049800 -0.067261 2.278134 -0.754550 0.369206 -0.213171 -0.374488 0.283665 6.846870 1.914452 -0.123180 -13.724615 0.000000 0.000000 0.000000 -23.045122 1.377871 -3.395101 -36.743835 -1.345237 -3.964035 3.845851 -15.882943 0.055101 0.000000 0.000000 0.000000 20.333254 -1.327583 -2.225599 43.229688 1.145806 -4.065914 -3.797379 14.822602 0.106857 0.000000 0.000000 0.000000 
0.000280 0.948664 0.000240 -1.436170 0.995670 -0.731572 1.458041 0.450095 6.088849 -0.313280 0.202125 -5.436569 -0.069942 2.078694 4.963465 0.000000 0.000000 0.000000 0.008197 -0.430795 4.226868 0.502269 -0.135304 -2.300928 0.613615 -0.655949 4.444299 0.000000 0.000000 0.000000 -1.167416 -0.070678 2.491474 -1.192421 0.559189 0.818652 -0.414476 0.628382 5.291969 0.997838 0.577290 -15.037092 0.000000 0.000000 0.000000 -21.624124 2.073168 -3.607921 -37.819712 -1.694435 -3.888085 5.114758 -15.000895 -0.113242 0.000000 0.000000 0.000000 20.160204 -1.753949 -2.522028 43.235916 -0.049823 -4.314956 -5.959617 16.951277 -0.165727 0.000000 0.000000 0.000000 
0.000623 0.948650 0.000243 -1.367358 0.733133 -0.501014 1.551175 0.366643 5.043483 -0.626914 0.178213 -3.882087 -0.387885 1.066617 4.053360 0.000000 0.000000 0.000000 -0.106262 -0.407549 4.075516 0.645852 -0.151707 -2.418612 0.762271 -0.141932 4.046429 0.000000 0.000000 0.000000 -0.724128 -0.101771 3.063267 -1.266202 0.631804 -1.370498 -0.645738 0.502755 6.951669 1.815207 0.002037 -14.707644 0.000000 0.000000 0.000000 -20.897987 1.681212 -3.170316 -37.703449 -1.612833 -4.042243 5.716379 -15.325518 -0.179875 0.000000 0.000000 0.000000 20.364109 -0.643528 -1.931596 41.536808 0.128217 -4.203892 -6.282999 16.531098 -0.201191 0.000000 0.000000 0.000000 
0.000843 0.949102 0.000221 -1.338147 0.637241 -0.875958 1.344359 0.414751 5.480848 -0.523419 0.165090 -3.685053 -0.656604 0.464583 3.887395 0.000000 0.000000 0.000000 -0.120094 -0.443445 4.443834 0.499155 -0.132982 -2.248387 0.955862 0.415047 3.818459 0.000000 0.000000 0.000000 -1.025991 -0.114009 3.707724 -1.583706 0.776419 -1.044828 -0.100943 -0.104525 6.336584 1.044392 0.383416 -14.323386 0.000000 0.000000 0.000000 -20.199623 2.747528 -3.475996 -37.710114 -1.897164 -3.980553 5.706499 -14.634819 -0.150732 0.000000 0.000000 0.000000 19.711405 -0.651762 -2.095440 41.386975 -0.157374 -4.168176 -7.125293 16.857518 -0.340038 0.000000 0.000000 0.000000 
0.001072 0.950073 0.000261 -1.262986 0.194031 -0.864819 1.220854 0.385689 4.969708 -0.313066 0.122827 -2.826143 -0.723617 0.180437 3.595901 0.000000 0.000000 0.000000 -0.100200 -0.418597 4.211863 0.164600 -0.090483 -1.912428 0.974696 0.479950 3.725637 0.000000 0.000000 0.000000 -0.908328 -0.136147 4.259170 -1.450540 0.714249 -1.205893 -0.224135 0.038408 6.266433 1.385046 0.089972 -13.444359 0.000000 0.000000 0.000000 -20.583502 2.524605 -3.394589 -35.984057 -1.895702 -3.793362 5.418480 -14.776682 -0.118277 0.000000 0.000000 0.000000 19.664254 -0.743151 -2.161426 39.662700 0.006378 -3.926030 -6.662972 16.280339 -0.272988 0.000000 0.000000 0.000000 
0.001374 0.950619 0.000546 -1.299784 0.123360 -0.653071 0.983732 0.377895 4.720492 0.117604 0.081364 -2.686378 -0.768544 0.144116 3.721332 0.000000 0.000000 0.000000 -0.127549 -0.398959 4.034389 0.001453 -0.067000 -1.689775 0.851672 0.344243 3.412202 0.000000 0.000000 0.000000 -1.030500 -0.131681 4.305142 -1.236686 0.620566 -1.708798 -0.004484 -0.562674 6.767212 1.099797 0.184400 -13.211241 0.000000 0.000000 0.000000 -20.455082 3.303611 -3.613925 -35.456174 -2.169706 -3.751839 5.225048 -14.377929 -0.071247 0.000000 0.000000 0.000000 18.989548 -0.854031 -2.304087 39.326515 0.050318 -3.864068 -7.233796 15.789350 -0.344499 0.000000 0.000000 0.000000 
0.001799 0.951040 0.001087 -1.284140 -0.125706 -0.408622 0.879841 0.354771 4.362092 0.116274 0.073695 -2.464832 -0.537701 0.646886 3.859297 0.000000 0.000000 0.000000 0.026951 -0.373461 3.706458 -0.543411 -0.004200 -1.396065 0.936686 0.630445 3.221151 0.000000 0.000000 0.000000 -0.936976 -0.142848 4.559982 -1.194136 0.599866 -1.777612 0.071204 -0.700524 6.823775 1.264578 0.061630 -13.369179 0.000000 0.000000 0.000000 -20.502730 3.479989 -3.642546 -34.854831 -1.991276 -3.759375 4.790428 -14.254700 -0.012425 0.000000 0.000000 0.000000 18.890653 -1.018975 -2.450601 38.920897 -0.322812 -3.912128 -7.333265 15.327841 -0.349633 0.000000 0.000000 0.000000 
0.002519 0.951367 0.002008 -1.326546 -0.102502 -0.280682 0.580435 0.346607 4.101351 0.182328 0.047992 -1.907101 -0.285498 0.922340 3.344889 0.000000 0.000000 0.000000 0.193753 -0.382089 3.699304 -0.963050 0.037964 -1.339907 0.661619 -0.001622 3.182587 0.000000 0.000000 0.000000 -0.964251 -0.153939 4.950947 -0.930413 0.482653 -2.048205 0.032764 -0.947615 7.175576 1.551123 -0.126621 -13.668279 0.000000 0.000000 0.000000 -20.768578 3.826600 -3.801652 -34.345429 -1.455676 -3.878926 4.895055 -14.383715 -0.018639 0.000000 0.000000 0.000000 19.062401 -1.284356 -2.661086 38.688532 -0.591686 -3.973459 -8.018498 13.723745 -0.367616 0.000000 0.000000 0.000000 
0.003548 0.951805 0.003380 -1.150943 -0.344632 0.083187 0.350043 0.357334 4.085174 0.133438 0.072393 -2.473814 -0.298129 1.021138 3.662032 0.000000 0.000000 0.000000 -0.075845 -0.346235 3.501194 -0.902507 0.024238 -1.495048 0.651836 -0.012959 3.135095 0.000000 0.000000 0.000000 -0.899257 -0.153912 4.902904 -1.146457 0.575666 -1.776471 0.254544 -1.045346 6.991227 1.785401 -0.288791 -13.819949 0.000000 0.000000 0.000000 -20.781273 4.232864 -3.965972 -34.555162 -0.877599 -4.051452 4.969283 -14.146424 -0.019625 0.000000 0.000000 0.000000 18.919146 -1.911340 -3.052366 38.918442 -1.558196 -4.240215 -8.141683 12.454931 -0.334374 0.000000 0.000000 0.000000 
